<svg xmlns="http://www.w3.org/2000/svg" viewBox="0 0 64 55.43">
  <g fill="#6f8756">
    <circle cx="20" cy="20" r="5.5"/>
    <circle cx="27" cy="17.5" r="5"/>
    <circle cx="32" cy="22" r="5.8"/>
    <circle cx="16.5" cy="28" r="5.2"/>
    <circle cx="24" cy="29.5" r="5.4"/>
    <circle cx="34" cy="31" r="5.6"/>
    <circle cx="43" cy="18.5" r="5.4"/>
    <circle cx="48.5" cy="24" r="5.1"/>
    <circle cx="44.5" cy="31" r="5.8"/>
    <circle cx="22" cy="37" r="5"/>
    <circle cx="31.5" cy="38.5" r="5.3"/>
    <circle cx="41.5" cy="37.5" r="5.1"/>
  </g>
  <g fill="#556c41">
    <circle cx="22" cy="20.5" r="4.2"/>
    <circle cx="29" cy="19" r="4"/>
    <circle cx="19" cy="29.5" r="4.3"/>
    <circle cx="28" cy="30.5" r="4.4"/>
    <circle cx="37" cy="28.5" r="4.1"/>
    <circle cx="44" cy="22.5" r="4.2"/>
    <circle cx="46" cy="31.5" r="4.4"/>
    <circle cx="24" cy="38" r="3.9"/>
    <circle cx="34" cy="38.5" r="4.1"/>
    <circle cx="43" cy="38.5" r="4"/>
  </g>
  <g fill="#7f9864">
    <circle cx="17" cy="18" r="2.4"/>
    <circle cx="33" cy="16.5" r="2.2"/>
    <circle cx="13.5" cy="31" r="2.1"/>
    <circle cx="39.5" cy="34" r="2.3"/>
    <circle cx="50" cy="19.5" r="2.1"/>
    <circle cx="28.5" cy="41.5" r="2.1"/>
    <circle cx="46.5" cy="35.5" r="2"/>
  </g>
</svg>
