<svg xmlns="http://www.w3.org/2000/svg" viewBox="0 0 64 55.43">
  <polygon points="16,0 48,0 64,27.71 48,55.43 16,55.43 0,27.71" fill="#f3ead4"/>
  <path
    d="M 13 28
       C 15 16, 25 9, 36 10
       C 46 11, 53 18, 52 28
       C 51 38, 43 45, 32 45
       C 21 45, 11 39, 13 28 Z"
    fill="#5f98c2"
  />
  <path
    d="M 20 28
       C 22 21, 28 17, 35 18
       C 41 19, 45 24, 44 30
       C 43 36, 38 39, 31 39
       C 25 39, 19 35, 20 28 Z"
    fill="#74abd1"
    opacity="0.8"
  />
</svg>
