<svg xmlns="http://www.w3.org/2000/svg" viewBox="0 0 64 55.43">
  <defs>
    <clipPath id="minor-city-clip">
      <polygon points="16,0 48,0 64,27.71 48,55.43 16,55.43 0,27.71"/>
    </clipPath>
  </defs>
  <polygon points="16,0 48,0 64,27.71 48,55.43 16,55.43 0,27.71" fill="none"/>
  <g clip-path="url(#minor-city-clip)">
    <g fill="#8b8b8b">
      <rect x="19" y="19" width="5" height="4"/>
      <rect x="27" y="18" width="6" height="5"/>
      <rect x="36" y="19" width="4" height="4"/>
      <rect x="21" y="26" width="7" height="4"/>
      <rect x="31" y="26" width="5" height="4"/>
      <rect x="38" y="26" width="6" height="4"/>
      <rect x="24" y="32" width="5" height="3"/>
      <rect x="32" y="31" width="8" height="4"/>
    </g>
    <g stroke="#b6b6b6" stroke-width="0.9">
      <path d="M 17 24 H 47"/>
      <path d="M 17 30 H 47"/>
      <path d="M 25 17 V 37"/>
      <path d="M 35 17 V 37"/>
    </g>
  </g>
</svg>
